<!DOCTYPE svg PUBLIC "-//W3C//DTD SVG 1.1//EN" "http://www.w3.org/Graphics/SVG/1.1/DTD/svg11.dtd">

<!-- Uploaded to: SVG Repo, www.svgrepo.com, Transformed by: SVG Repo Mixer Tools -->
<svg height="800px" width="800px" version="1.1" id="Layer_1"
  xmlns="http://www.w3.org/2000/svg"
  xmlns:xlink="http://www.w3.org/1999/xlink" viewBox="0 0 512 512" xml:space="preserve" fill="#000000">

  <g id="SVGRepo_bgCarrier" stroke-width="0"/>

  <g id="SVGRepo_tracerCarrier" stroke-linecap="round" stroke-linejoin="round"/>

  <g id="SVGRepo_iconCarrier">
    <path style="fill:#70d198;" d="M503.563,233.497c0-9.28-7.593-16.873-16.873-16.873l-46.975,0.001 c-4.837-22.678-13.762-43.84-25.975-62.678l33.228-33.227c6.561-6.561,6.561-17.3,0-23.862l-31.825-31.823 c-6.563-6.563-17.301-6.563-23.862,0L358.054,98.26c-18.837-12.212-40-21.138-62.679-25.976V25.31 c0-9.28-7.593-16.873-16.873-16.873h-45.003c-9.28,0-16.873,7.593-16.873,16.873v46.975c-22.679,4.838-43.841,13.763-62.679,25.976 L120.72,65.035c-6.563-6.563-17.3-6.563-23.862,0L65.036,96.859c-6.561,6.561-6.561,17.301,0,23.862l33.226,33.226 c-12.213,18.837-21.139,40-25.976,62.679H25.311c-9.28,0-16.873,7.593-16.873,16.873l0.001,45.005 c0,9.28,7.593,16.873,16.873,16.873h46.974c4.837,22.678,13.762,43.84,25.975,62.678l-33.227,33.227 c-6.561,6.561-6.561,17.3,0,23.862l31.824,31.822c6.563,6.563,17.301,6.561,23.862,0l33.225-33.225 c18.837,12.212,39.999,21.138,62.678,25.976v46.975c0,9.28,7.593,16.873,16.873,16.873l45.006-0.002 c9.28,0,16.873-7.593,16.873-16.873v-46.974c22.678-4.837,43.84-13.762,62.677-25.975l33.227,33.227 c6.561,6.561,17.3,6.561,23.862-0.001l31.823-31.824c6.561-6.563,6.561-17.302,0-23.863l-33.226-33.225 c12.212-18.837,21.137-40,25.975-62.678l46.978,0.001c9.28,0,16.873-7.593,16.872-16.873V233.497z M256.004,336.941 c-44.682,0-80.902-36.223-80.902-80.902s36.221-80.902,80.902-80.902s80.902,36.223,80.902,80.902 C336.906,300.719,300.686,336.941,256.004,336.941z"/>
    <path style="fill:#524eed;" d="M256.004,151.276c-57.859,0-104.762,46.905-104.762,104.763c0,57.858,46.903,104.762,104.762,104.762 s104.762-46.903,104.762-104.762C360.766,198.182,313.863,151.276,256.004,151.276z M256.004,323.443 c-37.226,0-67.403-30.178-67.403-67.403s30.177-67.403,67.403-67.403c37.226,0,67.403,30.179,67.403,67.403 S293.23,323.443,256.004,323.443z"/>
    <path style="fill:#1d1d42;" d="M256.004,142.84c-62.418,0-113.199,50.782-113.199,113.2s50.78,113.199,113.199,113.199 s113.199-50.781,113.199-113.199C369.203,193.622,318.422,142.84,256.004,142.84z M256.004,352.365 c-53.114,0-96.325-43.211-96.325-96.325c0-53.115,43.211-96.327,96.325-96.327s96.325,43.211,96.325,96.327 C352.329,309.153,309.118,352.365,256.004,352.365z M256.004,180.199c-41.819,0-75.84,34.021-75.84,75.84s34.022,75.84,75.84,75.84 c41.818,0,75.84-34.021,75.84-75.84C331.844,214.222,297.823,180.199,256.004,180.199z M256.004,315.006 c-32.515,0-58.967-26.453-58.967-58.967s26.453-58.967,58.967-58.967s58.967,26.453,58.967,58.967S288.519,315.006,256.004,315.006z M511.999,233.497c-0.001-13.955-11.355-25.31-25.31-25.31l-40.27,0.001c-4.672-18.689-12.041-36.47-21.972-53.016l28.487-28.486 c4.767-4.767,7.393-11.123,7.393-17.897c0-6.773-2.625-13.13-7.393-17.897l-31.825-31.823c-4.767-4.766-11.124-7.392-17.897-7.392 s-13.13,2.625-17.897,7.392L356.83,87.553c-16.547-9.931-34.328-17.301-53.017-21.974V25.31c0-13.955-11.353-25.31-25.31-25.31 h-45.003c-13.956,0-25.31,11.355-25.31,25.31v40.27c-18.689,4.673-36.471,12.043-53.018,21.974L126.687,59.07 c-4.767-4.767-11.123-7.393-17.897-7.393s-13.13,2.625-17.897,7.393L59.071,90.892c-4.767,4.767-7.393,11.123-7.393,17.897 c0,6.774,2.625,13.13,7.393,17.897l28.484,28.483c-9.932,16.547-17.301,34.329-21.974,53.018H25.311 c-6.743,0-13.093,2.638-17.882,7.427c-4.791,4.792-7.428,11.142-7.428,17.883l0.001,45.005c0.001,13.955,11.355,25.31,25.31,25.31 h40.27c4.672,18.689,12.042,36.471,21.972,53.017L59.07,385.314c-4.767,4.767-7.393,11.123-7.393,17.897 c0,6.773,2.625,13.13,7.393,17.897l31.824,31.822c4.767,4.766,11.123,7.392,17.897,7.392s13.13-2.626,17.897-7.392l28.483-28.483 c16.546,9.931,34.327,17.301,53.016,21.974v40.27c0,13.955,11.354,25.31,25.31,25.31h0.001l45.005-0.002 c13.956,0,25.31-11.355,25.31-25.31v-40.269c18.688-4.672,36.469-12.041,53.016-21.972l28.486,28.486 c4.767,4.766,11.123,7.392,17.896,7.392c6.774,0,13.13-2.627,17.897-7.394l31.823-31.824c4.767-4.767,7.392-11.123,7.392-17.897 c0-6.773-2.625-13.13-7.393-17.897l-28.484-28.483c9.931-16.546,17.3-34.327,21.972-53.016l40.272,0.001 c6.743,0,13.093-2.638,17.882-7.428c4.79-4.791,7.428-11.141,7.426-17.882L511.999,233.497z M492.642,284.454 c-1.603,1.603-3.717,2.486-5.951,2.486l-46.978-0.001c-3.981,0-7.421,2.784-8.251,6.677c-4.555,21.35-12.899,41.487-24.803,59.847 c-2.165,3.341-1.701,7.74,1.114,10.556L441,397.244c1.58,1.579,2.45,3.699,2.45,5.965c0,2.268-0.87,4.386-2.45,5.966l-31.824,31.825 c-1.58,1.579-3.699,2.451-5.965,2.451c-2.267,0-4.385-0.871-5.965-2.451l-33.227-33.227c-2.814-2.816-7.215-3.279-10.555-1.113 c-18.362,11.904-38.497,20.249-59.847,24.803c-3.893,0.83-6.677,4.27-6.677,8.251v46.974c0,4.653-3.784,8.437-8.438,8.437 l-45.005,0.002c-4.653,0-8.437-3.784-8.437-8.437v-46.975c0-3.981-2.783-7.421-6.677-8.251c-21.35-4.555-41.486-12.9-59.847-24.804 c-1.407-0.912-3.001-1.358-4.587-1.358c-2.179,0-4.339,0.841-5.969,2.47l-33.225,33.225c-1.58,1.58-3.7,2.451-5.966,2.451 c-2.267,0-4.385-0.87-5.965-2.451l-31.824-31.822c-1.58-1.579-2.451-3.699-2.451-5.965c0-2.268,0.871-4.385,2.45-5.965 l33.227-33.227c2.814-2.816,3.279-7.215,1.114-10.556c-11.904-18.36-20.248-38.497-24.803-59.847 c-0.83-3.894-4.27-6.677-8.251-6.677H25.312c-4.653,0-8.437-3.784-8.437-8.437l-0.001-45.005c0-2.235,0.882-4.349,2.485-5.951 c1.603-1.603,3.717-2.486,5.952-2.486h46.975c3.981,0,7.421-2.783,8.251-6.677c4.555-21.35,12.899-41.488,24.804-59.849 c2.165-3.341,1.702-7.74-1.114-10.556l-33.226-33.226c-1.58-1.579-2.45-3.699-2.45-5.965c0-2.268,0.87-4.385,2.45-5.966 l31.823-31.823c1.58-1.579,3.699-2.45,5.965-2.45c2.267,0,4.385,0.87,5.965,2.451l33.226,33.226 c2.814,2.816,7.214,3.278,10.555,1.113c18.362-11.904,38.498-20.249,59.849-24.804c3.894-0.83,6.677-4.27,6.677-8.251V25.31 c0-4.653,3.784-8.437,8.437-8.437h45.003c4.653,0,8.437,3.784,8.437,8.437v46.975c0,3.981,2.783,7.421,6.676,8.251 c21.352,4.555,41.488,12.9,59.85,24.804c3.342,2.168,7.74,1.703,10.555-1.113l33.226-33.227c1.58-1.579,3.699-2.45,5.965-2.45 c2.267,0,4.386,0.87,5.966,2.451l31.825,31.823c1.58,1.579,2.451,3.699,2.451,5.965c0,2.268-0.87,4.385-2.45,5.965l-33.228,33.227 c-2.816,2.816-3.279,7.215-1.114,10.556c11.904,18.36,20.248,38.497,24.803,59.847c0.83,3.894,4.27,6.677,8.251,6.677l46.975-0.001 c4.653,0,8.437,3.784,8.437,8.437l0.001,45.007C495.127,280.739,494.245,282.851,492.642,284.454z"/>
  </g>

</svg>
